PathFileType	4	(X/Y/Z)	C:/Users/beibeiliu/ov580/test_trc\sequence.5_training_dense_right.trc
DataRate	CameraRate	NumFrames	NumMarkers	Units	OrigDataRate	OrigDataStartFrame	OrigNumFrames
120	120	22	19	mm	120	169	336
Frame#	Time	ThumbCMC			ThumbMCP			ThumbIP			ThumbTip			IndexMCP			IndexPIP			IndexTip			MiddleMCP			MiddlePIP			MiddleTip			RingMCP			RingPIP			RingTip			PinkyMCP			PinkyPIP			PinkyTip			BackHand1			BackHand2			BackHand3	
		X0	Y0	Z0	X1	Y1	Z1	X2	Y2	Z2	X3	Y3	Z3	X4	Y4	Z4	X5	Y5	Z5	X6	Y6	Z6	X7	Y7	Z7	X8	Y8	Z8	X9	Y9	Z9	X10	Y10	Z10	X11	Y11	Z11	X12	Y12	Z12	X13	Y13	Z13	X14	Y14	Z14	X15	Y15	Z15	X16	Y16	Z16	X17	Y17	Z17	X18	Y18	Z18	
168	1.4	161.147	-5.51082	-11.3881	176.773	-18.9598	-36.8592	190.217	-23.5393	-54.3872	209.811	-24.3226	-65.6585	180.34	32.147	-62.1821	192.124	41.3677	-83.9569	197.923	47.9366	-102.26	205.853	21.2954	-63.8132	216.551	-6.25062	-70.8804	205.894	-16.7947	-41.179	224.962	12.6411	-48.5482	221.128	-17.2971	-41.9989	203.075	-14.6537	-20.441	234.529	8.38982	-34.717	222.587	-11.3473	-30.8393	206.119	-11.0171	-12.2337	201.64	37.5673	-9.47161	191.78	33.4771	12.5629	173.812	29.2585	-5.08883	
169	1.40833	164.43	-2.98905	-8.96328	175.509	-20.0511	-36.1249	189.668	-24.3188	-53.1896	211.244	-28.4998	-68.6745	189.777	34.9082	-62.9476	195.015	38.2149	-80.629	202.694	42.4715	-100.702	208.826	20.8107	-62.0031	216.84	-10.3745	-67.1022	204.456	-18.199	-38.3458	224.694	11.7635	-46.8936	221.408	-17.1526	-41.5775	204.51	-15.0153	-18.6786	236.163	7.45278	-33.1956	228.974	-12.0265	-29.3044	205.298	-9.12944	-11.0246	206.259	38.4554	-8.52775	192.569	29.6952	18.4859	176.392	28.5535	-3.03898	
170	1.41667	168.701	-1.78101	-9.42244	176.418	-22.1164	-33.8172	191.889	-26.3984	-55.1258	210.159	-27.9634	-62.3338	191.822	29.4114	-59.2491	202.631	30.2378	-78.5253	216.188	28.7188	-103.666	214.95	17.0033	-58.1874	218.212	-14.4992	-61.5251	205.894	-19.205	-32.3508	225.065	9.26931	-45.1914	225.143	-16.3135	-41.2636	208.475	-18.207	-14.9694	236.57	7.89892	-30.327	226.621	-15.0602	-25.7466	208.905	-10.8576	-5.42846	209.054	35.1487	-7.09132	195.715	31.2762	19.2198	179.694	28.3268	-0.227096	
171	1.425	166.84	-4.43977	-8.26563	177.577	-20.6794	-28.7494	193.372	-25.2907	-49.7004	210.419	-29.8658	-61.2058	195.538	21.9487	-61.5237	208.796	16.3186	-79.948	220.618	5.97793	-99.0176	216.561	9.82045	-58.3055	222.586	-18.8782	-55.2268	207.178	-24.3861	-26.876	229.72	6.94339	-40.3871	223.134	-21.4251	-35.9747	208.88	-20.1361	-10.0655	238.647	3.83289	-29.3457	231.146	-16.8368	-24.7021	208.393	-12.7272	-4.81157	207.415	33.0748	-4.8317	199.055	30.7307	19.1787	176.413	27.8301	-0.76208	
172	1.43333	168.828	-5.04332	-5.56732	177.011	-23.1246	-28.2007	190.338	-30.7562	-50.294	210.97	-31.7677	-61.5099	194.133	14.5569	-60.5694	207.11	2.08546	-80.6272	220.963	-12.8244	-95.8461	213.254	5.1951	-57.0438	217.626	-25.4645	-54.1305	208.391	-28.5676	-25.3999	228.486	0.430248	-41.1771	226.7	-23.9292	-34.5284	206.954	-23.5833	-12.5062	241.211	3.51114	-23.69	230.671	-21.714	-19.7104	208.554	-14.0401	-5.81921	209.111	30.8123	-5.18757	198.07	28.6155	19.3287	180.891	27.0032	1.03983	
173	1.44167	168.486	-4.9479	-1.92721	175.753	-22.6496	-26.0157	187.562	-30.6231	-48.7573	208.783	-34.6133	-61.541	195.506	10.5521	-62.2335	208.488	-0.989895	-76.8491	221.956	-19.2433	-89.2137	216.354	2.8677	-54.2221	217.894	-27.3953	-53.4958	204.975	-30.875	-23.0291	227.933	-1.07072	-38.8138	221.902	-26.9037	-33.2489	205.877	-24.2794	-8.49761	240.184	-0.22189	-22.6516	228.841	-22.9552	-22.0766	206.559	-19.0984	-4.94824	209.029	27.1128	-1.77343	199.133	28.4456	23.603	177.613	24.6848	-0.480352	
174	1.45	166.15	-5.56675	0.450576	175.079	-22.3826	-27.4578	185.272	-30.2257	-43.5841	205.102	-36.7732	-60.0089	196.212	10.7693	-60.1629	206.591	-1.84988	-76.4986	220.471	-20.9334	-90.3769	216.5	2.5306	-51.0272	218.75	-26.3389	-52.2495	201.417	-34.183	-23.7369	228.407	-2.97661	-37.5014	220.253	-31.3123	-28.3022	206.448	-26.4207	-5.16374	238.17	-4.10842	-22.9872	227.757	-25.4868	-19.3732	206.228	-18.0372	-3.43016	210.519	28.4836	-1.31176	202.843	26.0135	26.1794	180.816	23.7786	3.64121	
175	1.45833	166.95	-4.64186	0.785362	173.472	-21.9582	-26.1433	183.734	-29.6623	-46.0198	202.378	-33.7399	-54.9799	196.485	13.1387	-55.5998	207.23	2.85259	-75.7089	216.686	-14.7779	-93.9232	213.343	1.74169	-50.9217	214.303	-31.0917	-49.6962	204.957	-33.2956	-21.5436	228.339	-6.78249	-37.0005	218.451	-31.3369	-29.3181	205.614	-28.0536	-8.73239	238.203	-9.57974	-23.3786	223.409	-27.1706	-18.7141	206.817	-22.9731	-0.228365	214.398	26.7081	3.34211	201.549	22.7404	27.1286	183.883	26.1578	4.21751	
176	1.46667	167.71	-2.37683	3.31223	171.976	-18.512	-24.403	182.486	-26.8674	-46.4692	202.991	-30.2974	-54.8828	199.139	17.049	-54.597	204.843	10.2922	-76.0524	213.411	0.169323	-93.8872	215.733	0.668199	-51.2873	213.281	-28.5816	-49.9676	202.255	-30.6755	-20.0933	224.805	-7.09639	-38.8175	217.34	-29.2103	-32.9674	203.261	-26.1126	-5.12287	236.902	-8.55142	-22.7088	226.746	-29.2297	-16.2945	208.602	-23.524	0.787321	216.674	24.5661	0.0101259	204.463	23.7525	29.4516	185.524	24.3212	5.81349	
177	1.475	165.917	-0.712271	4.58082	169.184	-17.7051	-23.9363	184.602	-21.0959	-44.4877	198.982	-31.5141	-59.6292	194.725	23.2929	-55.0374	208.003	19.0982	-75.3751	214.417	14.7729	-94.1663	215.217	5.6366	-48.2548	209.382	-26.4972	-51.1805	197.606	-27.1979	-19.5987	228.955	-5.52134	-35.4418	217.995	-30.1882	-30.9443	202.164	-25.3642	-6.7525	238.576	-8.28588	-20.536	223.454	-27.1457	-20.8147	205.146	-17.9762	-1.87993	215.43	25.5522	5.2555	207.686	24.141	31.1707	185.118	27.7534	8.88817	
178	1.48333	168.844	3.60296	6.06564	170.972	-12.3931	-26.4226	178.663	-19.9892	-47.2778	197.058	-26.7597	-61.454	194.276	29.0822	-49.5719	205.458	30.2235	-71.0575	213.713	29.8956	-94.2164	213.792	8.41222	-49.2214	210.198	-20.5805	-55.3575	196.658	-23.1482	-21.8826	224.785	-5.08569	-38.9736	217.275	-28.544	-31.3	202.919	-23.8907	-7.63938	235.087	-5.46635	-23.0832	220.833	-25.8699	-21.8851	205.434	-20.5153	-1.76108	217.556	24.7025	3.11456	211.514	24.6168	29.2452	191.012	28.0473	8.67841	
179	1.49167	169.228	7.79136	3.34521	170.734	-7.76283	-23.0845	178.23	-14.5756	-41.8167	194.93	-21.4567	-58.6929	200.508	35.9459	-50.0161	203.576	38.5718	-70.7378	215.448	39.3995	-86.8494	214.633	13.6524	-49.5248	212.943	-15.8052	-56.636	199.093	-22.3543	-26.8165	227.756	-2.62996	-38.1035	210.949	-24.7235	-33.8078	200.124	-18.6211	-8.08225	232.517	-8.04559	-26.2566	218.85	-23.8064	-23.1492	204.073	-16.0918	-0.779513	221.581	25.1499	5.05247	213.697	22.6755	31.6914	191.686	31.4007	10.6956	
180	1.5	171.16	10.1283	5.69692	167.519	-5.73696	-21.444	178.208	-11.1267	-44.6851	190.66	-21.286	-62.7825	200.056	37.8458	-43.8094	209.816	43.8612	-67.5096	215.288	49.8903	-86.8602	215.085	15.0255	-51.1745	208.285	-11.4837	-58.7942	196.999	-18.9585	-28.8389	222.886	2.13497	-39.4017	209.724	-24.1975	-33.6833	199.019	-18.9745	-11.7218	234.465	-4.57759	-24.8022	216.882	-23.7839	-23.2539	204.787	-15.0954	-1.57783	225.531	26.7873	2.56788	214.917	23.9727	33.8822	193.959	33.7336	12.7026	
181	1.50833	170.502	12.5237	4.34472	167.511	-2.41825	-23.6525	174.187	-9.84407	-42.7731	189.373	-18.1777	-59.9629	199.334	41.6294	-44.2305	209.701	47.2369	-66.1981	217.236	52.7856	-82.6522	216.839	18.374	-48.384	208.446	-8.91813	-59.8574	191.296	-15.7089	-31.7962	227.048	1.71046	-38.1126	210.038	-22.2635	-36.147	195.229	-15.5575	-14.5129	233.551	-8.89125	-26.7251	213.629	-21.8022	-23.5134	200.848	-15.0781	-5.3036	220.543	26.7304	5.94428	214.13	24.1118	31.0063	195.499	31.8655	13.4524	
182	1.51667	167.593	14.1114	6.05391	165.94	-1.30932	-19.6835	173.945	-7.95412	-47.7226	189.499	-17.6383	-62.2115	200.964	45.2112	-45.1265	211.219	49.1942	-62.4309	219.755	54.1106	-78.6101	214.312	20.7386	-47.6779	209.433	-5.72438	-60.9154	188.328	-13.6228	-32.5272	222.86	5.13258	-38.7016	207.056	-21.1004	-38.6944	196.995	-16.8924	-12.3371	231.168	-9.08966	-28.7532	210.813	-20.6213	-24.8065	198.593	-13.7098	-6.42903	223.264	27.1952	3.60395	216.729	19.8556	33.6278	194.927	35.5299	14.4043	
183	1.525	170.685	15.0708	8.34952	166.021	0.433525	-21.2837	170.257	-6.40577	-44.2986	186.533	-16.8111	-61.4282	201.694	43.8306	-38.3343	207.983	51.6941	-60.2993	216.212	59.2896	-76.7442	216.079	20.1207	-47.2259	205.268	-5.74136	-60.7762	190.231	-12.7262	-32.0956	221.928	1.84851	-42.374	202.951	-19.0284	-38.6359	192.955	-15.0834	-14.9423	231.851	-8.95423	-25.5726	210.276	-22.5684	-24.2746	197.533	-9.36948	-3.45611	223.905	25.7543	5.57056	216.288	19.2959	34.5369	195.221	35.4109	13.9257	
184	1.53333	168.243	18.3629	7.13259	166.106	4.26037	-20.8087	169.694	-4.01419	-43.812	184.884	-13.67	-57.6721	199.65	47.4898	-40.5099	209.712	53.7419	-60.8138	218.396	58.7715	-76.4001	213.698	21.2993	-49.3796	204.843	-1.45816	-61.5506	185.563	-11.8664	-32.6943	218.729	4.54607	-39.4675	199.043	-15.3317	-41.0044	190.956	-15.3609	-13.9515	226.623	-6.2821	-26.4719	208.161	-24.4395	-24.121	197.475	-14.9891	-2.70541	221.134	23.9314	6.15371	214.212	21.439	31.739	196.014	34.0296	15.7392	
185	1.54167	168.778	18.0633	12.224	159.673	4.36927	-16.5348	168.165	-2.73508	-38.4919	180.682	-13.9234	-56.8203	200.599	46.8922	-40.9415	207.209	51.3798	-58.6106	218.504	54.3946	-82.6172	208.551	23.0685	-50.9712	198.26	-2.8776	-59.7302	183.606	-11.0024	-35.3151	215.724	1.36685	-42.0586	200.752	-16.593	-41.9116	185.522	-14.6061	-16.0793	224.301	-6.23351	-26.4662	202.815	-22.0448	-25.1107	194.991	-15.8477	-3.83411	221.605	23.5263	4.59704	215.049	16.7602	36.0273	195.592	34.6754	19.163	
186	1.55	168.659	19.4483	15.9317	159.165	6.7257	-14.6707	166.313	-0.538112	-38.1835	175.121	-12.3681	-55.8551	197.774	43.8964	-38.6221	203.993	45.1161	-63.8425	210.235	42.2653	-86.0855	207.398	22.1203	-46.3577	194.277	-0.556452	-61.1511	178.509	-11.5705	-30.1394	215.469	-0.517075	-40.49	196.862	-17.5292	-39.033	183.517	-15.484	-14.3227	223.647	-13.4432	-27.8999	200.39	-20.5234	-25.5148	190.184	-13.8871	-4.73746	221.491	21.2787	8.01544	218.555	17.3673	35.8148	198.997	36.5683	15.8744	
187	1.55833	169.819	20.8124	18.9957	161.797	9.09558	-11.7478	160.154	1.14958	-33.4833	167.761	-10.4711	-54.1382	199.86	37.1296	-39.0646	199.299	35.2595	-68.4015	201.499	24.8572	-86.9986	206.016	16.703	-44.9628	186.402	-6.36085	-54.6943	176.955	-13.4699	-25.1839	211.808	-2.44104	-39.5608	192.156	-17.0711	-37.9131	181.551	-15.3671	-8.92376	220.45	-17.4372	-27.2731	197.805	-26.3931	-21.3647	188.221	-14.7318	0.648631	226.085	17.7901	9.52544	219.734	17.325	33.8249	200.753	34.7324	16.7286	
188	1.56667	171.758	21.0273	20.0369	156.843	11.256	-9.11701	161.457	4.31694	-34.5105	165.889	-7.79681	-53.301	196.672	33.4306	-43.4903	194.676	22.1922	-67.281	191.357	9.58066	-84.6314	203.384	12.6329	-47.2507	189.937	-11.59	-52.9883	174.746	-16.3086	-20.6521	210.357	-3.63122	-37.307	191.078	-21.9906	-35.561	181.349	-18.7714	-7.07345	219.303	-14.9843	-25.2117	195.554	-25.0841	-23.2633	186.255	-13.2536	-0.566936	224.746	14.4991	10.5711	220.086	17.3023	33.0337	204.976	31.6376	21.3818	
189	1.575	169.823	23.1773	16.1758	159.392	13.368	-12.4885	160.608	5.53235	-37.5794	169.054	-6.62464	-53.5882	195.772	29.7284	-41.2125	190.334	18.3877	-67.4288	183.184	5.08713	-82.6431	203.315	9.62185	-46.5166	181.349	-13.5184	-50.3627	170.248	-18.3667	-22.4671	208.806	-7.91474	-39.0384	187.53	-21.2351	-34.4889	181.351	-20.8139	-7.66079	222.094	-19.7192	-23.0989	195.049	-24.8927	-23.5936	187.581	-16.0336	-4.20467	227.021	13.0076	9.31907	219.787	15.0474	35.092	202.37	32.1233	18.816	
